<mxfile host="Electron" agent="Mozilla/5.0 (Macintosh; Intel Mac OS X 10_15_7) AppleWebKit/537.36 (KHTML, like Gecko) draw.io/24.7.5 Chrome/126.0.6478.183 Electron/31.3.0 Safari/537.36" version="24.7.5">
  <diagram name="Page-1" id="e56a1550-8fbb-45ad-956c-1786394a9013">
    <mxGraphModel dx="2636" dy="836" grid="1" gridSize="10" guides="1" tooltips="1" connect="1" arrows="1" fold="1" page="1" pageScale="1" pageWidth="1100" pageHeight="850" background="none" math="0" shadow="0">
      <root>
        <mxCell id="0" />
        <mxCell id="1" parent="0" />
        <mxCell id="E7xt4FRm8ha0BPfJUqgO-25" value="Products" style="shape=table;startSize=30;container=1;collapsible=1;childLayout=tableLayout;fixedRows=1;rowLines=0;fontStyle=1;align=center;resizeLast=1;html=1;whiteSpace=wrap;fillColor=#76608a;strokeColor=#432D57;fontColor=#ffffff;strokeWidth=1;perimeterSpacing=1;" vertex="1" parent="1">
          <mxGeometry x="-360" y="350" width="280" height="120" as="geometry" />
        </mxCell>
        <mxCell id="E7xt4FRm8ha0BPfJUqgO-26" value="" style="shape=tableRow;horizontal=0;startSize=0;swimlaneHead=0;swimlaneBody=0;fillColor=none;collapsible=0;dropTarget=0;points=[[0,0.5],[1,0.5]];portConstraint=eastwest;top=0;left=0;right=0;bottom=0;html=1;" vertex="1" parent="E7xt4FRm8ha0BPfJUqgO-25">
          <mxGeometry y="30" width="280" height="30" as="geometry" />
        </mxCell>
        <mxCell id="E7xt4FRm8ha0BPfJUqgO-27" value="product id" style="shape=partialRectangle;connectable=0;fillColor=#FFFFFF;top=0;left=0;bottom=0;right=0;fontStyle=1;overflow=hidden;html=1;whiteSpace=wrap;strokeColor=#000000;fontColor=#000000;perimeterSpacing=1;align=left;" vertex="1" parent="E7xt4FRm8ha0BPfJUqgO-26">
          <mxGeometry width="140" height="30" as="geometry">
            <mxRectangle width="140" height="30" as="alternateBounds" />
          </mxGeometry>
        </mxCell>
        <mxCell id="E7xt4FRm8ha0BPfJUqgO-50" value="&lt;span style=&quot;color: rgb(0, 0, 0);&quot;&gt;&amp;nbsp;integer&lt;/span&gt;" style="shape=partialRectangle;connectable=0;fillColor=#FFFFFF;top=0;left=0;bottom=0;right=0;fontStyle=1;overflow=hidden;html=1;whiteSpace=wrap;strokeWidth=1;strokeColor=#000000;perimeterSpacing=1;fillStyle=auto;align=left;labelBorderColor=none;" vertex="1" parent="E7xt4FRm8ha0BPfJUqgO-26">
          <mxGeometry x="140" width="140" height="30" as="geometry">
            <mxRectangle width="140" height="30" as="alternateBounds" />
          </mxGeometry>
        </mxCell>
        <mxCell id="E7xt4FRm8ha0BPfJUqgO-64" style="shape=tableRow;horizontal=0;startSize=0;swimlaneHead=0;swimlaneBody=0;fillColor=none;collapsible=0;dropTarget=0;points=[[0,0.5],[1,0.5]];portConstraint=eastwest;top=0;left=0;right=0;bottom=0;html=1;" vertex="1" parent="E7xt4FRm8ha0BPfJUqgO-25">
          <mxGeometry y="60" width="280" height="30" as="geometry" />
        </mxCell>
        <mxCell id="E7xt4FRm8ha0BPfJUqgO-66" value="&lt;font color=&quot;#000000&quot;&gt;category id&lt;/font&gt;" style="shape=partialRectangle;connectable=0;fillColor=#FFFFFF;top=0;left=0;bottom=0;right=0;fontStyle=1;overflow=hidden;html=1;whiteSpace=wrap;strokeWidth=1;strokeColor=#000000;perimeterSpacing=1;align=left;textShadow=0;" vertex="1" parent="E7xt4FRm8ha0BPfJUqgO-64">
          <mxGeometry width="140" height="30" as="geometry">
            <mxRectangle width="140" height="30" as="alternateBounds" />
          </mxGeometry>
        </mxCell>
        <mxCell id="E7xt4FRm8ha0BPfJUqgO-65" value="&amp;nbsp;integer" style="shape=partialRectangle;connectable=0;fillColor=#FFFFFF;top=0;left=0;bottom=0;right=0;fontStyle=1;overflow=hidden;html=1;whiteSpace=wrap;strokeColor=#000000;fontColor=#000000;perimeterSpacing=1;align=left;" vertex="1" parent="E7xt4FRm8ha0BPfJUqgO-64">
          <mxGeometry x="140" width="140" height="30" as="geometry">
            <mxRectangle width="140" height="30" as="alternateBounds" />
          </mxGeometry>
        </mxCell>
        <mxCell id="E7xt4FRm8ha0BPfJUqgO-80" style="shape=tableRow;horizontal=0;startSize=0;swimlaneHead=0;swimlaneBody=0;fillColor=none;collapsible=0;dropTarget=0;points=[[0,0.5],[1,0.5]];portConstraint=eastwest;top=0;left=0;right=0;bottom=0;html=1;" vertex="1" parent="E7xt4FRm8ha0BPfJUqgO-25">
          <mxGeometry y="90" width="280" height="30" as="geometry" />
        </mxCell>
        <mxCell id="E7xt4FRm8ha0BPfJUqgO-81" value="&lt;font color=&quot;#000000&quot;&gt;description&lt;/font&gt;" style="shape=partialRectangle;connectable=0;fillColor=#FFFFFF;top=0;left=0;bottom=0;right=0;fontStyle=1;overflow=hidden;html=1;whiteSpace=wrap;strokeWidth=1;strokeColor=#000000;perimeterSpacing=1;align=left;textShadow=0;" vertex="1" parent="E7xt4FRm8ha0BPfJUqgO-80">
          <mxGeometry width="140" height="30" as="geometry">
            <mxRectangle width="140" height="30" as="alternateBounds" />
          </mxGeometry>
        </mxCell>
        <mxCell id="E7xt4FRm8ha0BPfJUqgO-82" value="varchar" style="shape=partialRectangle;connectable=0;fillColor=#FFFFFF;top=0;left=0;bottom=0;right=0;fontStyle=1;overflow=hidden;html=1;whiteSpace=wrap;strokeColor=#000000;fontColor=#000000;perimeterSpacing=1;align=left;" vertex="1" parent="E7xt4FRm8ha0BPfJUqgO-80">
          <mxGeometry x="140" width="140" height="30" as="geometry">
            <mxRectangle width="140" height="30" as="alternateBounds" />
          </mxGeometry>
        </mxCell>
        <mxCell id="E7xt4FRm8ha0BPfJUqgO-67" value="Prices" style="shape=table;startSize=30;container=1;collapsible=1;childLayout=tableLayout;fixedRows=1;rowLines=0;fontStyle=1;align=center;resizeLast=1;html=1;whiteSpace=wrap;fillColor=#76608a;strokeColor=#432D57;fontColor=#ffffff;strokeWidth=1;perimeterSpacing=1;" vertex="1" parent="1">
          <mxGeometry x="440" y="440" width="280" height="90" as="geometry" />
        </mxCell>
        <mxCell id="E7xt4FRm8ha0BPfJUqgO-68" value="" style="shape=tableRow;horizontal=0;startSize=0;swimlaneHead=0;swimlaneBody=0;fillColor=none;collapsible=0;dropTarget=0;points=[[0,0.5],[1,0.5]];portConstraint=eastwest;top=0;left=0;right=0;bottom=0;html=1;" vertex="1" parent="E7xt4FRm8ha0BPfJUqgO-67">
          <mxGeometry y="30" width="280" height="30" as="geometry" />
        </mxCell>
        <mxCell id="E7xt4FRm8ha0BPfJUqgO-69" value="price id" style="shape=partialRectangle;connectable=0;fillColor=#FFFFFF;top=0;left=0;bottom=0;right=0;fontStyle=1;overflow=hidden;html=1;whiteSpace=wrap;strokeColor=#000000;fontColor=#000000;perimeterSpacing=1;align=left;" vertex="1" parent="E7xt4FRm8ha0BPfJUqgO-68">
          <mxGeometry width="140" height="30" as="geometry">
            <mxRectangle width="140" height="30" as="alternateBounds" />
          </mxGeometry>
        </mxCell>
        <mxCell id="E7xt4FRm8ha0BPfJUqgO-70" value="&lt;span style=&quot;color: rgb(0, 0, 0);&quot;&gt;&amp;nbsp;integer&lt;/span&gt;" style="shape=partialRectangle;connectable=0;fillColor=#FFFFFF;top=0;left=0;bottom=0;right=0;fontStyle=1;overflow=hidden;html=1;whiteSpace=wrap;strokeWidth=1;strokeColor=#000000;perimeterSpacing=1;fillStyle=auto;align=left;labelBorderColor=none;" vertex="1" parent="E7xt4FRm8ha0BPfJUqgO-68">
          <mxGeometry x="140" width="140" height="30" as="geometry">
            <mxRectangle width="140" height="30" as="alternateBounds" />
          </mxGeometry>
        </mxCell>
        <mxCell id="E7xt4FRm8ha0BPfJUqgO-71" style="shape=tableRow;horizontal=0;startSize=0;swimlaneHead=0;swimlaneBody=0;fillColor=none;collapsible=0;dropTarget=0;points=[[0,0.5],[1,0.5]];portConstraint=eastwest;top=0;left=0;right=0;bottom=0;html=1;" vertex="1" parent="E7xt4FRm8ha0BPfJUqgO-67">
          <mxGeometry y="60" width="280" height="30" as="geometry" />
        </mxCell>
        <mxCell id="E7xt4FRm8ha0BPfJUqgO-72" value="&lt;font color=&quot;#000000&quot;&gt;description&lt;/font&gt;" style="shape=partialRectangle;connectable=0;fillColor=#FFFFFF;top=0;left=0;bottom=0;right=0;fontStyle=1;overflow=hidden;html=1;whiteSpace=wrap;strokeWidth=1;strokeColor=#000000;perimeterSpacing=1;align=left;textShadow=0;" vertex="1" parent="E7xt4FRm8ha0BPfJUqgO-71">
          <mxGeometry width="140" height="30" as="geometry">
            <mxRectangle width="140" height="30" as="alternateBounds" />
          </mxGeometry>
        </mxCell>
        <mxCell id="E7xt4FRm8ha0BPfJUqgO-73" value="" style="shape=partialRectangle;connectable=0;fillColor=#FFFFFF;top=0;left=0;bottom=0;right=0;fontStyle=1;overflow=hidden;html=1;whiteSpace=wrap;strokeColor=#000000;fontColor=#000000;perimeterSpacing=1;align=left;" vertex="1" parent="E7xt4FRm8ha0BPfJUqgO-71">
          <mxGeometry x="140" width="140" height="30" as="geometry">
            <mxRectangle width="140" height="30" as="alternateBounds" />
          </mxGeometry>
        </mxCell>
        <mxCell id="E7xt4FRm8ha0BPfJUqgO-86" value="Product category" style="shape=table;startSize=30;container=1;collapsible=1;childLayout=tableLayout;fixedRows=1;rowLines=0;fontStyle=1;align=center;resizeLast=1;html=1;whiteSpace=wrap;fillColor=#76608a;strokeColor=#432D57;fontColor=#ffffff;strokeWidth=1;perimeterSpacing=1;" vertex="1" parent="1">
          <mxGeometry x="-370" y="590" width="280" height="90" as="geometry" />
        </mxCell>
        <mxCell id="E7xt4FRm8ha0BPfJUqgO-90" style="shape=tableRow;horizontal=0;startSize=0;swimlaneHead=0;swimlaneBody=0;fillColor=none;collapsible=0;dropTarget=0;points=[[0,0.5],[1,0.5]];portConstraint=eastwest;top=0;left=0;right=0;bottom=0;html=1;" vertex="1" parent="E7xt4FRm8ha0BPfJUqgO-86">
          <mxGeometry y="30" width="280" height="30" as="geometry" />
        </mxCell>
        <mxCell id="E7xt4FRm8ha0BPfJUqgO-91" value="&lt;font color=&quot;#000000&quot;&gt;category id&lt;/font&gt;" style="shape=partialRectangle;connectable=0;fillColor=#FFFFFF;top=0;left=0;bottom=0;right=0;fontStyle=1;overflow=hidden;html=1;whiteSpace=wrap;strokeWidth=1;strokeColor=#000000;perimeterSpacing=1;align=left;textShadow=0;" vertex="1" parent="E7xt4FRm8ha0BPfJUqgO-90">
          <mxGeometry width="140" height="30" as="geometry">
            <mxRectangle width="140" height="30" as="alternateBounds" />
          </mxGeometry>
        </mxCell>
        <mxCell id="E7xt4FRm8ha0BPfJUqgO-92" value="&amp;nbsp;integer" style="shape=partialRectangle;connectable=0;fillColor=#FFFFFF;top=0;left=0;bottom=0;right=0;fontStyle=1;overflow=hidden;html=1;whiteSpace=wrap;strokeColor=#000000;fontColor=#000000;perimeterSpacing=1;align=left;" vertex="1" parent="E7xt4FRm8ha0BPfJUqgO-90">
          <mxGeometry x="140" width="140" height="30" as="geometry">
            <mxRectangle width="140" height="30" as="alternateBounds" />
          </mxGeometry>
        </mxCell>
        <mxCell id="E7xt4FRm8ha0BPfJUqgO-93" style="shape=tableRow;horizontal=0;startSize=0;swimlaneHead=0;swimlaneBody=0;fillColor=none;collapsible=0;dropTarget=0;points=[[0,0.5],[1,0.5]];portConstraint=eastwest;top=0;left=0;right=0;bottom=0;html=1;" vertex="1" parent="E7xt4FRm8ha0BPfJUqgO-86">
          <mxGeometry y="60" width="280" height="30" as="geometry" />
        </mxCell>
        <mxCell id="E7xt4FRm8ha0BPfJUqgO-95" value="&lt;span style=&quot;background-color: rgb(255, 255, 255);&quot;&gt;description&lt;/span&gt;" style="shape=partialRectangle;connectable=0;fillColor=#FFFFFF;top=0;left=0;bottom=0;right=0;fontStyle=1;overflow=hidden;html=1;whiteSpace=wrap;strokeColor=#000000;fontColor=#000000;perimeterSpacing=1;align=left;" vertex="1" parent="E7xt4FRm8ha0BPfJUqgO-93">
          <mxGeometry width="140" height="30" as="geometry">
            <mxRectangle width="140" height="30" as="alternateBounds" />
          </mxGeometry>
        </mxCell>
        <mxCell id="E7xt4FRm8ha0BPfJUqgO-94" value="&lt;span style=&quot;color: rgb(0, 0, 0);&quot;&gt;varchar&lt;/span&gt;" style="shape=partialRectangle;connectable=0;fillColor=#FFFFFF;top=0;left=0;bottom=0;right=0;fontStyle=1;overflow=hidden;html=1;whiteSpace=wrap;strokeWidth=1;strokeColor=#000000;perimeterSpacing=1;align=left;textShadow=0;" vertex="1" parent="E7xt4FRm8ha0BPfJUqgO-93">
          <mxGeometry x="140" width="140" height="30" as="geometry">
            <mxRectangle width="140" height="30" as="alternateBounds" />
          </mxGeometry>
        </mxCell>
        <mxCell id="E7xt4FRm8ha0BPfJUqgO-99" value="Dealers" style="shape=table;startSize=30;container=1;collapsible=1;childLayout=tableLayout;fixedRows=1;rowLines=0;fontStyle=1;align=center;resizeLast=1;html=1;whiteSpace=wrap;fillColor=#76608a;strokeColor=#432D57;fontColor=#ffffff;strokeWidth=1;perimeterSpacing=1;" vertex="1" parent="1">
          <mxGeometry x="60" y="110" width="280" height="120" as="geometry" />
        </mxCell>
        <mxCell id="E7xt4FRm8ha0BPfJUqgO-100" value="" style="shape=tableRow;horizontal=0;startSize=0;swimlaneHead=0;swimlaneBody=0;fillColor=none;collapsible=0;dropTarget=0;points=[[0,0.5],[1,0.5]];portConstraint=eastwest;top=0;left=0;right=0;bottom=0;html=1;" vertex="1" parent="E7xt4FRm8ha0BPfJUqgO-99">
          <mxGeometry y="30" width="280" height="30" as="geometry" />
        </mxCell>
        <mxCell id="E7xt4FRm8ha0BPfJUqgO-101" value="dealer id" style="shape=partialRectangle;connectable=0;fillColor=#FFFFFF;top=0;left=0;bottom=0;right=0;fontStyle=1;overflow=hidden;html=1;whiteSpace=wrap;strokeColor=#000000;fontColor=#000000;perimeterSpacing=1;align=left;" vertex="1" parent="E7xt4FRm8ha0BPfJUqgO-100">
          <mxGeometry width="140" height="30" as="geometry">
            <mxRectangle width="140" height="30" as="alternateBounds" />
          </mxGeometry>
        </mxCell>
        <mxCell id="E7xt4FRm8ha0BPfJUqgO-102" value="&lt;span style=&quot;color: rgb(0, 0, 0);&quot;&gt;&amp;nbsp;integer&lt;/span&gt;" style="shape=partialRectangle;connectable=0;fillColor=#FFFFFF;top=0;left=0;bottom=0;right=0;fontStyle=1;overflow=hidden;html=1;whiteSpace=wrap;strokeWidth=1;strokeColor=#000000;perimeterSpacing=1;fillStyle=auto;align=left;labelBorderColor=none;" vertex="1" parent="E7xt4FRm8ha0BPfJUqgO-100">
          <mxGeometry x="140" width="140" height="30" as="geometry">
            <mxRectangle width="140" height="30" as="alternateBounds" />
          </mxGeometry>
        </mxCell>
        <mxCell id="E7xt4FRm8ha0BPfJUqgO-103" style="shape=tableRow;horizontal=0;startSize=0;swimlaneHead=0;swimlaneBody=0;fillColor=none;collapsible=0;dropTarget=0;points=[[0,0.5],[1,0.5]];portConstraint=eastwest;top=0;left=0;right=0;bottom=0;html=1;" vertex="1" parent="E7xt4FRm8ha0BPfJUqgO-99">
          <mxGeometry y="60" width="280" height="30" as="geometry" />
        </mxCell>
        <mxCell id="E7xt4FRm8ha0BPfJUqgO-104" value="&lt;span style=&quot;color: rgb(0, 0, 0); background-color: rgb(255, 255, 255);&quot;&gt;company name&lt;/span&gt;" style="shape=partialRectangle;connectable=0;fillColor=#FFFFFF;top=0;left=0;bottom=0;right=0;fontStyle=1;overflow=hidden;html=1;whiteSpace=wrap;strokeWidth=1;strokeColor=#000000;perimeterSpacing=1;align=left;textShadow=0;" vertex="1" parent="E7xt4FRm8ha0BPfJUqgO-103">
          <mxGeometry width="140" height="30" as="geometry">
            <mxRectangle width="140" height="30" as="alternateBounds" />
          </mxGeometry>
        </mxCell>
        <mxCell id="E7xt4FRm8ha0BPfJUqgO-105" value="&lt;span style=&quot;background-color: rgb(255, 255, 255);&quot;&gt;varchar&lt;/span&gt;" style="shape=partialRectangle;connectable=0;fillColor=#FFFFFF;top=0;left=0;bottom=0;right=0;fontStyle=1;overflow=hidden;html=1;whiteSpace=wrap;strokeColor=#000000;fontColor=#000000;perimeterSpacing=1;align=left;" vertex="1" parent="E7xt4FRm8ha0BPfJUqgO-103">
          <mxGeometry x="140" width="140" height="30" as="geometry">
            <mxRectangle width="140" height="30" as="alternateBounds" />
          </mxGeometry>
        </mxCell>
        <mxCell id="E7xt4FRm8ha0BPfJUqgO-106" style="shape=tableRow;horizontal=0;startSize=0;swimlaneHead=0;swimlaneBody=0;fillColor=none;collapsible=0;dropTarget=0;points=[[0,0.5],[1,0.5]];portConstraint=eastwest;top=0;left=0;right=0;bottom=0;html=1;" vertex="1" parent="E7xt4FRm8ha0BPfJUqgO-99">
          <mxGeometry y="90" width="280" height="30" as="geometry" />
        </mxCell>
        <mxCell id="E7xt4FRm8ha0BPfJUqgO-107" value="&lt;font color=&quot;#000000&quot;&gt;&lt;span style=&quot;background-color: rgb(255, 255, 255);&quot;&gt;type&lt;/span&gt;&lt;/font&gt;" style="shape=partialRectangle;connectable=0;fillColor=#FFFFFF;top=0;left=0;bottom=0;right=0;fontStyle=1;overflow=hidden;html=1;whiteSpace=wrap;strokeWidth=1;strokeColor=#000000;perimeterSpacing=1;align=left;textShadow=0;" vertex="1" parent="E7xt4FRm8ha0BPfJUqgO-106">
          <mxGeometry width="140" height="30" as="geometry">
            <mxRectangle width="140" height="30" as="alternateBounds" />
          </mxGeometry>
        </mxCell>
        <mxCell id="E7xt4FRm8ha0BPfJUqgO-108" value="&lt;span style=&quot;background-color: rgb(255, 255, 255);&quot;&gt;varchar&lt;/span&gt;" style="shape=partialRectangle;connectable=0;fillColor=#FFFFFF;top=0;left=0;bottom=0;right=0;fontStyle=1;overflow=hidden;html=1;whiteSpace=wrap;strokeColor=#000000;fontColor=#000000;perimeterSpacing=1;align=left;" vertex="1" parent="E7xt4FRm8ha0BPfJUqgO-106">
          <mxGeometry x="140" width="140" height="30" as="geometry">
            <mxRectangle width="140" height="30" as="alternateBounds" />
          </mxGeometry>
        </mxCell>
        <mxCell id="E7xt4FRm8ha0BPfJUqgO-112" value="Manufacturers" style="shape=table;startSize=30;container=1;collapsible=1;childLayout=tableLayout;fixedRows=1;rowLines=0;fontStyle=1;align=center;resizeLast=1;html=1;whiteSpace=wrap;fillColor=#76608a;strokeColor=#432D57;fontColor=#ffffff;strokeWidth=1;perimeterSpacing=1;" vertex="1" parent="1">
          <mxGeometry x="-360" y="110" width="280" height="180" as="geometry" />
        </mxCell>
        <mxCell id="E7xt4FRm8ha0BPfJUqgO-113" value="" style="shape=tableRow;horizontal=0;startSize=0;swimlaneHead=0;swimlaneBody=0;fillColor=none;collapsible=0;dropTarget=0;points=[[0,0.5],[1,0.5]];portConstraint=eastwest;top=0;left=0;right=0;bottom=0;html=1;" vertex="1" parent="E7xt4FRm8ha0BPfJUqgO-112">
          <mxGeometry y="30" width="280" height="30" as="geometry" />
        </mxCell>
        <mxCell id="E7xt4FRm8ha0BPfJUqgO-114" value="manufacture id" style="shape=partialRectangle;connectable=0;fillColor=#FFFFFF;top=0;left=0;bottom=0;right=0;fontStyle=1;overflow=hidden;html=1;whiteSpace=wrap;strokeColor=#000000;fontColor=#000000;perimeterSpacing=1;align=left;" vertex="1" parent="E7xt4FRm8ha0BPfJUqgO-113">
          <mxGeometry width="140" height="30" as="geometry">
            <mxRectangle width="140" height="30" as="alternateBounds" />
          </mxGeometry>
        </mxCell>
        <mxCell id="E7xt4FRm8ha0BPfJUqgO-115" value="&lt;span style=&quot;color: rgb(0, 0, 0);&quot;&gt;&amp;nbsp;integer&lt;/span&gt;" style="shape=partialRectangle;connectable=0;fillColor=#FFFFFF;top=0;left=0;bottom=0;right=0;fontStyle=1;overflow=hidden;html=1;whiteSpace=wrap;strokeWidth=1;strokeColor=#000000;perimeterSpacing=1;fillStyle=auto;align=left;labelBorderColor=none;" vertex="1" parent="E7xt4FRm8ha0BPfJUqgO-113">
          <mxGeometry x="140" width="140" height="30" as="geometry">
            <mxRectangle width="140" height="30" as="alternateBounds" />
          </mxGeometry>
        </mxCell>
        <mxCell id="E7xt4FRm8ha0BPfJUqgO-116" style="shape=tableRow;horizontal=0;startSize=0;swimlaneHead=0;swimlaneBody=0;fillColor=none;collapsible=0;dropTarget=0;points=[[0,0.5],[1,0.5]];portConstraint=eastwest;top=0;left=0;right=0;bottom=0;html=1;" vertex="1" parent="E7xt4FRm8ha0BPfJUqgO-112">
          <mxGeometry y="60" width="280" height="30" as="geometry" />
        </mxCell>
        <mxCell id="E7xt4FRm8ha0BPfJUqgO-117" value="&lt;font color=&quot;#000000&quot;&gt;product id&lt;/font&gt;" style="shape=partialRectangle;connectable=0;fillColor=#FFFFFF;top=0;left=0;bottom=0;right=0;fontStyle=1;overflow=hidden;html=1;whiteSpace=wrap;strokeWidth=1;strokeColor=#000000;perimeterSpacing=1;align=left;textShadow=0;" vertex="1" parent="E7xt4FRm8ha0BPfJUqgO-116">
          <mxGeometry width="140" height="30" as="geometry">
            <mxRectangle width="140" height="30" as="alternateBounds" />
          </mxGeometry>
        </mxCell>
        <mxCell id="E7xt4FRm8ha0BPfJUqgO-118" value="&amp;nbsp;integer" style="shape=partialRectangle;connectable=0;fillColor=#FFFFFF;top=0;left=0;bottom=0;right=0;fontStyle=1;overflow=hidden;html=1;whiteSpace=wrap;strokeColor=#000000;fontColor=#000000;perimeterSpacing=1;align=left;" vertex="1" parent="E7xt4FRm8ha0BPfJUqgO-116">
          <mxGeometry x="140" width="140" height="30" as="geometry">
            <mxRectangle width="140" height="30" as="alternateBounds" />
          </mxGeometry>
        </mxCell>
        <mxCell id="E7xt4FRm8ha0BPfJUqgO-119" style="shape=tableRow;horizontal=0;startSize=0;swimlaneHead=0;swimlaneBody=0;fillColor=none;collapsible=0;dropTarget=0;points=[[0,0.5],[1,0.5]];portConstraint=eastwest;top=0;left=0;right=0;bottom=0;html=1;" vertex="1" parent="E7xt4FRm8ha0BPfJUqgO-112">
          <mxGeometry y="90" width="280" height="30" as="geometry" />
        </mxCell>
        <mxCell id="E7xt4FRm8ha0BPfJUqgO-120" value="&lt;font color=&quot;#000000&quot;&gt;category id&lt;/font&gt;" style="shape=partialRectangle;connectable=0;fillColor=#FFFFFF;top=0;left=0;bottom=0;right=0;fontStyle=1;overflow=hidden;html=1;whiteSpace=wrap;strokeWidth=1;strokeColor=#000000;perimeterSpacing=1;align=left;textShadow=0;" vertex="1" parent="E7xt4FRm8ha0BPfJUqgO-119">
          <mxGeometry width="140" height="30" as="geometry">
            <mxRectangle width="140" height="30" as="alternateBounds" />
          </mxGeometry>
        </mxCell>
        <mxCell id="E7xt4FRm8ha0BPfJUqgO-121" value="&amp;nbsp;integer" style="shape=partialRectangle;connectable=0;fillColor=#FFFFFF;top=0;left=0;bottom=0;right=0;fontStyle=1;overflow=hidden;html=1;whiteSpace=wrap;strokeColor=#000000;fontColor=#000000;perimeterSpacing=1;align=left;" vertex="1" parent="E7xt4FRm8ha0BPfJUqgO-119">
          <mxGeometry x="140" width="140" height="30" as="geometry">
            <mxRectangle width="140" height="30" as="alternateBounds" />
          </mxGeometry>
        </mxCell>
        <mxCell id="E7xt4FRm8ha0BPfJUqgO-122" style="shape=tableRow;horizontal=0;startSize=0;swimlaneHead=0;swimlaneBody=0;fillColor=none;collapsible=0;dropTarget=0;points=[[0,0.5],[1,0.5]];portConstraint=eastwest;top=0;left=0;right=0;bottom=0;html=1;" vertex="1" parent="E7xt4FRm8ha0BPfJUqgO-112">
          <mxGeometry y="120" width="280" height="30" as="geometry" />
        </mxCell>
        <mxCell id="E7xt4FRm8ha0BPfJUqgO-123" value="&lt;span style=&quot;color: rgb(0, 0, 0); background-color: rgb(255, 255, 255);&quot;&gt;address&lt;/span&gt;" style="shape=partialRectangle;connectable=0;fillColor=#FFFFFF;top=0;left=0;bottom=0;right=0;fontStyle=1;overflow=hidden;html=1;whiteSpace=wrap;strokeWidth=1;strokeColor=#000000;perimeterSpacing=1;align=left;textShadow=0;" vertex="1" parent="E7xt4FRm8ha0BPfJUqgO-122">
          <mxGeometry width="140" height="30" as="geometry">
            <mxRectangle width="140" height="30" as="alternateBounds" />
          </mxGeometry>
        </mxCell>
        <mxCell id="E7xt4FRm8ha0BPfJUqgO-124" value="&lt;span style=&quot;background-color: rgb(255, 255, 255);&quot;&gt;varchar&lt;/span&gt;" style="shape=partialRectangle;connectable=0;fillColor=#FFFFFF;top=0;left=0;bottom=0;right=0;fontStyle=1;overflow=hidden;html=1;whiteSpace=wrap;strokeColor=#000000;fontColor=#000000;perimeterSpacing=1;align=left;" vertex="1" parent="E7xt4FRm8ha0BPfJUqgO-122">
          <mxGeometry x="140" width="140" height="30" as="geometry">
            <mxRectangle width="140" height="30" as="alternateBounds" />
          </mxGeometry>
        </mxCell>
        <mxCell id="E7xt4FRm8ha0BPfJUqgO-190" style="shape=tableRow;horizontal=0;startSize=0;swimlaneHead=0;swimlaneBody=0;fillColor=none;collapsible=0;dropTarget=0;points=[[0,0.5],[1,0.5]];portConstraint=eastwest;top=0;left=0;right=0;bottom=0;html=1;" vertex="1" parent="E7xt4FRm8ha0BPfJUqgO-112">
          <mxGeometry y="150" width="280" height="30" as="geometry" />
        </mxCell>
        <mxCell id="E7xt4FRm8ha0BPfJUqgO-191" value="&lt;span style=&quot;color: rgb(0, 0, 0); background-color: rgb(255, 255, 255);&quot;&gt;company name&lt;/span&gt;" style="shape=partialRectangle;connectable=0;fillColor=#FFFFFF;top=0;left=0;bottom=0;right=0;fontStyle=1;overflow=hidden;html=1;whiteSpace=wrap;strokeWidth=1;strokeColor=#000000;perimeterSpacing=1;align=left;textShadow=0;" vertex="1" parent="E7xt4FRm8ha0BPfJUqgO-190">
          <mxGeometry width="140" height="30" as="geometry">
            <mxRectangle width="140" height="30" as="alternateBounds" />
          </mxGeometry>
        </mxCell>
        <mxCell id="E7xt4FRm8ha0BPfJUqgO-192" value="&lt;span style=&quot;background-color: rgb(255, 255, 255);&quot;&gt;varchar&lt;/span&gt;" style="shape=partialRectangle;connectable=0;fillColor=#FFFFFF;top=0;left=0;bottom=0;right=0;fontStyle=1;overflow=hidden;html=1;whiteSpace=wrap;strokeColor=#000000;fontColor=#000000;perimeterSpacing=1;align=left;" vertex="1" parent="E7xt4FRm8ha0BPfJUqgO-190">
          <mxGeometry x="140" width="140" height="30" as="geometry">
            <mxRectangle width="140" height="30" as="alternateBounds" />
          </mxGeometry>
        </mxCell>
        <mxCell id="E7xt4FRm8ha0BPfJUqgO-125" value="Customers" style="shape=table;startSize=30;container=1;collapsible=1;childLayout=tableLayout;fixedRows=1;rowLines=0;fontStyle=1;align=center;resizeLast=1;html=1;whiteSpace=wrap;fillColor=#76608a;strokeColor=#432D57;fontColor=#ffffff;strokeWidth=1;perimeterSpacing=1;" vertex="1" parent="1">
          <mxGeometry x="440" y="160" width="280" height="180" as="geometry" />
        </mxCell>
        <mxCell id="E7xt4FRm8ha0BPfJUqgO-126" value="" style="shape=tableRow;horizontal=0;startSize=0;swimlaneHead=0;swimlaneBody=0;fillColor=none;collapsible=0;dropTarget=0;points=[[0,0.5],[1,0.5]];portConstraint=eastwest;top=0;left=0;right=0;bottom=0;html=1;" vertex="1" parent="E7xt4FRm8ha0BPfJUqgO-125">
          <mxGeometry y="30" width="280" height="30" as="geometry" />
        </mxCell>
        <mxCell id="E7xt4FRm8ha0BPfJUqgO-127" value="customer id" style="shape=partialRectangle;connectable=0;fillColor=#FFFFFF;top=0;left=0;bottom=0;right=0;fontStyle=1;overflow=hidden;html=1;whiteSpace=wrap;strokeColor=#000000;fontColor=#000000;perimeterSpacing=1;align=left;" vertex="1" parent="E7xt4FRm8ha0BPfJUqgO-126">
          <mxGeometry width="140" height="30" as="geometry">
            <mxRectangle width="140" height="30" as="alternateBounds" />
          </mxGeometry>
        </mxCell>
        <mxCell id="E7xt4FRm8ha0BPfJUqgO-128" value="&lt;font color=&quot;#000000&quot;&gt;&amp;nbsp;integer&lt;/font&gt;" style="shape=partialRectangle;connectable=0;fillColor=#FFFFFF;top=0;left=0;bottom=0;right=0;fontStyle=1;overflow=hidden;html=1;whiteSpace=wrap;strokeWidth=1;strokeColor=#000000;perimeterSpacing=1;fillStyle=auto;align=left;labelBorderColor=none;" vertex="1" parent="E7xt4FRm8ha0BPfJUqgO-126">
          <mxGeometry x="140" width="140" height="30" as="geometry">
            <mxRectangle width="140" height="30" as="alternateBounds" />
          </mxGeometry>
        </mxCell>
        <mxCell id="E7xt4FRm8ha0BPfJUqgO-129" style="shape=tableRow;horizontal=0;startSize=0;swimlaneHead=0;swimlaneBody=0;fillColor=none;collapsible=0;dropTarget=0;points=[[0,0.5],[1,0.5]];portConstraint=eastwest;top=0;left=0;right=0;bottom=0;html=1;" vertex="1" parent="E7xt4FRm8ha0BPfJUqgO-125">
          <mxGeometry y="60" width="280" height="30" as="geometry" />
        </mxCell>
        <mxCell id="E7xt4FRm8ha0BPfJUqgO-130" value="&lt;font color=&quot;#000000&quot;&gt;name&lt;/font&gt;" style="shape=partialRectangle;connectable=0;fillColor=#FFFFFF;top=0;left=0;bottom=0;right=0;fontStyle=1;overflow=hidden;html=1;whiteSpace=wrap;strokeWidth=1;strokeColor=#000000;perimeterSpacing=1;align=left;textShadow=0;" vertex="1" parent="E7xt4FRm8ha0BPfJUqgO-129">
          <mxGeometry width="140" height="30" as="geometry">
            <mxRectangle width="140" height="30" as="alternateBounds" />
          </mxGeometry>
        </mxCell>
        <mxCell id="E7xt4FRm8ha0BPfJUqgO-131" value="varchar" style="shape=partialRectangle;connectable=0;fillColor=#FFFFFF;top=0;left=0;bottom=0;right=0;fontStyle=1;overflow=hidden;html=1;whiteSpace=wrap;strokeColor=#000000;fontColor=#000000;perimeterSpacing=1;align=left;" vertex="1" parent="E7xt4FRm8ha0BPfJUqgO-129">
          <mxGeometry x="140" width="140" height="30" as="geometry">
            <mxRectangle width="140" height="30" as="alternateBounds" />
          </mxGeometry>
        </mxCell>
        <mxCell id="E7xt4FRm8ha0BPfJUqgO-132" style="shape=tableRow;horizontal=0;startSize=0;swimlaneHead=0;swimlaneBody=0;fillColor=none;collapsible=0;dropTarget=0;points=[[0,0.5],[1,0.5]];portConstraint=eastwest;top=0;left=0;right=0;bottom=0;html=1;" vertex="1" parent="E7xt4FRm8ha0BPfJUqgO-125">
          <mxGeometry y="90" width="280" height="30" as="geometry" />
        </mxCell>
        <mxCell id="E7xt4FRm8ha0BPfJUqgO-133" value="&lt;font color=&quot;#000000&quot;&gt;surname&lt;/font&gt;" style="shape=partialRectangle;connectable=0;fillColor=#FFFFFF;top=0;left=0;bottom=0;right=0;fontStyle=1;overflow=hidden;html=1;whiteSpace=wrap;strokeWidth=1;strokeColor=#000000;perimeterSpacing=1;align=left;textShadow=0;" vertex="1" parent="E7xt4FRm8ha0BPfJUqgO-132">
          <mxGeometry width="140" height="30" as="geometry">
            <mxRectangle width="140" height="30" as="alternateBounds" />
          </mxGeometry>
        </mxCell>
        <mxCell id="E7xt4FRm8ha0BPfJUqgO-134" value="varchar" style="shape=partialRectangle;connectable=0;fillColor=#FFFFFF;top=0;left=0;bottom=0;right=0;fontStyle=1;overflow=hidden;html=1;whiteSpace=wrap;strokeColor=#000000;fontColor=#000000;perimeterSpacing=1;align=left;" vertex="1" parent="E7xt4FRm8ha0BPfJUqgO-132">
          <mxGeometry x="140" width="140" height="30" as="geometry">
            <mxRectangle width="140" height="30" as="alternateBounds" />
          </mxGeometry>
        </mxCell>
        <mxCell id="E7xt4FRm8ha0BPfJUqgO-135" style="shape=tableRow;horizontal=0;startSize=0;swimlaneHead=0;swimlaneBody=0;fillColor=none;collapsible=0;dropTarget=0;points=[[0,0.5],[1,0.5]];portConstraint=eastwest;top=0;left=0;right=0;bottom=0;html=1;" vertex="1" parent="E7xt4FRm8ha0BPfJUqgO-125">
          <mxGeometry y="120" width="280" height="30" as="geometry" />
        </mxCell>
        <mxCell id="E7xt4FRm8ha0BPfJUqgO-136" value="&lt;font style=&quot;background-color: rgb(255, 255, 255);&quot; color=&quot;#000000&quot;&gt;address&lt;/font&gt;" style="shape=partialRectangle;connectable=0;fillColor=#FFFFFF;top=0;left=0;bottom=0;right=0;fontStyle=1;overflow=hidden;html=1;whiteSpace=wrap;strokeWidth=1;strokeColor=#000000;perimeterSpacing=1;align=left;textShadow=0;" vertex="1" parent="E7xt4FRm8ha0BPfJUqgO-135">
          <mxGeometry width="140" height="30" as="geometry">
            <mxRectangle width="140" height="30" as="alternateBounds" />
          </mxGeometry>
        </mxCell>
        <mxCell id="E7xt4FRm8ha0BPfJUqgO-137" value="&lt;span style=&quot;background-color: rgb(255, 255, 255);&quot;&gt;varchar&lt;/span&gt;" style="shape=partialRectangle;connectable=0;fillColor=#FFFFFF;top=0;left=0;bottom=0;right=0;fontStyle=1;overflow=hidden;html=1;whiteSpace=wrap;strokeColor=#000000;fontColor=#000000;perimeterSpacing=1;align=left;" vertex="1" parent="E7xt4FRm8ha0BPfJUqgO-135">
          <mxGeometry x="140" width="140" height="30" as="geometry">
            <mxRectangle width="140" height="30" as="alternateBounds" />
          </mxGeometry>
        </mxCell>
        <mxCell id="E7xt4FRm8ha0BPfJUqgO-187" style="shape=tableRow;horizontal=0;startSize=0;swimlaneHead=0;swimlaneBody=0;fillColor=none;collapsible=0;dropTarget=0;points=[[0,0.5],[1,0.5]];portConstraint=eastwest;top=0;left=0;right=0;bottom=0;html=1;" vertex="1" parent="E7xt4FRm8ha0BPfJUqgO-125">
          <mxGeometry y="150" width="280" height="30" as="geometry" />
        </mxCell>
        <mxCell id="E7xt4FRm8ha0BPfJUqgO-188" value="account id" style="shape=partialRectangle;connectable=0;fillColor=#FFFFFF;top=0;left=0;bottom=0;right=0;fontStyle=1;overflow=hidden;html=1;whiteSpace=wrap;strokeWidth=1;strokeColor=#000000;perimeterSpacing=1;align=left;textShadow=0;" vertex="1" parent="E7xt4FRm8ha0BPfJUqgO-187">
          <mxGeometry width="140" height="30" as="geometry">
            <mxRectangle width="140" height="30" as="alternateBounds" />
          </mxGeometry>
        </mxCell>
        <mxCell id="E7xt4FRm8ha0BPfJUqgO-189" style="shape=partialRectangle;connectable=0;fillColor=#FFFFFF;top=0;left=0;bottom=0;right=0;fontStyle=1;overflow=hidden;html=1;whiteSpace=wrap;strokeColor=#000000;fontColor=#000000;perimeterSpacing=1;align=left;" vertex="1" parent="E7xt4FRm8ha0BPfJUqgO-187">
          <mxGeometry x="140" width="140" height="30" as="geometry">
            <mxRectangle width="140" height="30" as="alternateBounds" />
          </mxGeometry>
        </mxCell>
        <mxCell id="E7xt4FRm8ha0BPfJUqgO-138" value="Purchases" style="shape=table;startSize=30;container=1;collapsible=1;childLayout=tableLayout;fixedRows=1;rowLines=0;fontStyle=1;align=center;resizeLast=1;html=1;whiteSpace=wrap;fillColor=#76608a;strokeColor=#432D57;fontColor=#ffffff;strokeWidth=1;perimeterSpacing=1;" vertex="1" parent="1">
          <mxGeometry x="60" y="350" width="280" height="210" as="geometry" />
        </mxCell>
        <mxCell id="E7xt4FRm8ha0BPfJUqgO-139" value="" style="shape=tableRow;horizontal=0;startSize=0;swimlaneHead=0;swimlaneBody=0;fillColor=none;collapsible=0;dropTarget=0;points=[[0,0.5],[1,0.5]];portConstraint=eastwest;top=0;left=0;right=0;bottom=0;html=1;" vertex="1" parent="E7xt4FRm8ha0BPfJUqgO-138">
          <mxGeometry y="30" width="280" height="30" as="geometry" />
        </mxCell>
        <mxCell id="E7xt4FRm8ha0BPfJUqgO-140" value="purchase id" style="shape=partialRectangle;connectable=0;fillColor=#FFFFFF;top=0;left=0;bottom=0;right=0;fontStyle=1;overflow=hidden;html=1;whiteSpace=wrap;strokeColor=#000000;fontColor=#000000;perimeterSpacing=1;align=left;" vertex="1" parent="E7xt4FRm8ha0BPfJUqgO-139">
          <mxGeometry width="140" height="30" as="geometry">
            <mxRectangle width="140" height="30" as="alternateBounds" />
          </mxGeometry>
        </mxCell>
        <mxCell id="E7xt4FRm8ha0BPfJUqgO-141" value="&lt;span style=&quot;color: rgb(0, 0, 0);&quot;&gt;&amp;nbsp;integer&lt;/span&gt;" style="shape=partialRectangle;connectable=0;fillColor=#FFFFFF;top=0;left=0;bottom=0;right=0;fontStyle=1;overflow=hidden;html=1;whiteSpace=wrap;strokeWidth=1;strokeColor=#000000;perimeterSpacing=1;fillStyle=auto;align=left;labelBorderColor=none;" vertex="1" parent="E7xt4FRm8ha0BPfJUqgO-139">
          <mxGeometry x="140" width="140" height="30" as="geometry">
            <mxRectangle width="140" height="30" as="alternateBounds" />
          </mxGeometry>
        </mxCell>
        <mxCell id="E7xt4FRm8ha0BPfJUqgO-142" style="shape=tableRow;horizontal=0;startSize=0;swimlaneHead=0;swimlaneBody=0;fillColor=none;collapsible=0;dropTarget=0;points=[[0,0.5],[1,0.5]];portConstraint=eastwest;top=0;left=0;right=0;bottom=0;html=1;" vertex="1" parent="E7xt4FRm8ha0BPfJUqgO-138">
          <mxGeometry y="60" width="280" height="30" as="geometry" />
        </mxCell>
        <mxCell id="E7xt4FRm8ha0BPfJUqgO-143" value="&lt;font color=&quot;#000000&quot;&gt;product id&lt;/font&gt;" style="shape=partialRectangle;connectable=0;fillColor=#FFFFFF;top=0;left=0;bottom=0;right=0;fontStyle=1;overflow=hidden;html=1;whiteSpace=wrap;strokeWidth=1;strokeColor=#000000;perimeterSpacing=1;align=left;textShadow=0;" vertex="1" parent="E7xt4FRm8ha0BPfJUqgO-142">
          <mxGeometry width="140" height="30" as="geometry">
            <mxRectangle width="140" height="30" as="alternateBounds" />
          </mxGeometry>
        </mxCell>
        <mxCell id="E7xt4FRm8ha0BPfJUqgO-144" value="&amp;nbsp;integer" style="shape=partialRectangle;connectable=0;fillColor=#FFFFFF;top=0;left=0;bottom=0;right=0;fontStyle=1;overflow=hidden;html=1;whiteSpace=wrap;strokeColor=#000000;fontColor=#000000;perimeterSpacing=1;align=left;" vertex="1" parent="E7xt4FRm8ha0BPfJUqgO-142">
          <mxGeometry x="140" width="140" height="30" as="geometry">
            <mxRectangle width="140" height="30" as="alternateBounds" />
          </mxGeometry>
        </mxCell>
        <mxCell id="E7xt4FRm8ha0BPfJUqgO-145" style="shape=tableRow;horizontal=0;startSize=0;swimlaneHead=0;swimlaneBody=0;fillColor=none;collapsible=0;dropTarget=0;points=[[0,0.5],[1,0.5]];portConstraint=eastwest;top=0;left=0;right=0;bottom=0;html=1;" vertex="1" parent="E7xt4FRm8ha0BPfJUqgO-138">
          <mxGeometry y="90" width="280" height="30" as="geometry" />
        </mxCell>
        <mxCell id="E7xt4FRm8ha0BPfJUqgO-146" value="&lt;font color=&quot;#000000&quot;&gt;dealer id&lt;/font&gt;" style="shape=partialRectangle;connectable=0;fillColor=#FFFFFF;top=0;left=0;bottom=0;right=0;fontStyle=1;overflow=hidden;html=1;whiteSpace=wrap;strokeWidth=1;strokeColor=#000000;perimeterSpacing=1;align=left;textShadow=0;" vertex="1" parent="E7xt4FRm8ha0BPfJUqgO-145">
          <mxGeometry width="140" height="30" as="geometry">
            <mxRectangle width="140" height="30" as="alternateBounds" />
          </mxGeometry>
        </mxCell>
        <mxCell id="E7xt4FRm8ha0BPfJUqgO-147" value="&amp;nbsp;integer" style="shape=partialRectangle;connectable=0;fillColor=#FFFFFF;top=0;left=0;bottom=0;right=0;fontStyle=1;overflow=hidden;html=1;whiteSpace=wrap;strokeColor=#000000;fontColor=#000000;perimeterSpacing=1;align=left;" vertex="1" parent="E7xt4FRm8ha0BPfJUqgO-145">
          <mxGeometry x="140" width="140" height="30" as="geometry">
            <mxRectangle width="140" height="30" as="alternateBounds" />
          </mxGeometry>
        </mxCell>
        <mxCell id="E7xt4FRm8ha0BPfJUqgO-148" style="shape=tableRow;horizontal=0;startSize=0;swimlaneHead=0;swimlaneBody=0;fillColor=none;collapsible=0;dropTarget=0;points=[[0,0.5],[1,0.5]];portConstraint=eastwest;top=0;left=0;right=0;bottom=0;html=1;" vertex="1" parent="E7xt4FRm8ha0BPfJUqgO-138">
          <mxGeometry y="120" width="280" height="30" as="geometry" />
        </mxCell>
        <mxCell id="E7xt4FRm8ha0BPfJUqgO-149" value="&lt;font color=&quot;#000000&quot;&gt;price id&lt;/font&gt;" style="shape=partialRectangle;connectable=0;fillColor=#FFFFFF;top=0;left=0;bottom=0;right=0;fontStyle=1;overflow=hidden;html=1;whiteSpace=wrap;strokeWidth=1;strokeColor=#000000;perimeterSpacing=1;align=left;textShadow=0;" vertex="1" parent="E7xt4FRm8ha0BPfJUqgO-148">
          <mxGeometry width="140" height="30" as="geometry">
            <mxRectangle width="140" height="30" as="alternateBounds" />
          </mxGeometry>
        </mxCell>
        <mxCell id="E7xt4FRm8ha0BPfJUqgO-150" value="&amp;nbsp;integer" style="shape=partialRectangle;connectable=0;fillColor=#FFFFFF;top=0;left=0;bottom=0;right=0;fontStyle=1;overflow=hidden;html=1;whiteSpace=wrap;strokeColor=#000000;fontColor=#000000;perimeterSpacing=1;align=left;" vertex="1" parent="E7xt4FRm8ha0BPfJUqgO-148">
          <mxGeometry x="140" width="140" height="30" as="geometry">
            <mxRectangle width="140" height="30" as="alternateBounds" />
          </mxGeometry>
        </mxCell>
        <mxCell id="E7xt4FRm8ha0BPfJUqgO-151" style="shape=tableRow;horizontal=0;startSize=0;swimlaneHead=0;swimlaneBody=0;fillColor=none;collapsible=0;dropTarget=0;points=[[0,0.5],[1,0.5]];portConstraint=eastwest;top=0;left=0;right=0;bottom=0;html=1;" vertex="1" parent="E7xt4FRm8ha0BPfJUqgO-138">
          <mxGeometry y="150" width="280" height="30" as="geometry" />
        </mxCell>
        <mxCell id="E7xt4FRm8ha0BPfJUqgO-152" value="&lt;font color=&quot;#000000&quot;&gt;customer id&lt;/font&gt;" style="shape=partialRectangle;connectable=0;fillColor=#FFFFFF;top=0;left=0;bottom=0;right=0;fontStyle=1;overflow=hidden;html=1;whiteSpace=wrap;strokeWidth=1;strokeColor=#000000;perimeterSpacing=1;align=left;textShadow=0;" vertex="1" parent="E7xt4FRm8ha0BPfJUqgO-151">
          <mxGeometry width="140" height="30" as="geometry">
            <mxRectangle width="140" height="30" as="alternateBounds" />
          </mxGeometry>
        </mxCell>
        <mxCell id="E7xt4FRm8ha0BPfJUqgO-153" value="&amp;nbsp;integer" style="shape=partialRectangle;connectable=0;fillColor=#FFFFFF;top=0;left=0;bottom=0;right=0;fontStyle=1;overflow=hidden;html=1;whiteSpace=wrap;strokeColor=#000000;fontColor=#000000;perimeterSpacing=1;align=left;" vertex="1" parent="E7xt4FRm8ha0BPfJUqgO-151">
          <mxGeometry x="140" width="140" height="30" as="geometry">
            <mxRectangle width="140" height="30" as="alternateBounds" />
          </mxGeometry>
        </mxCell>
        <mxCell id="E7xt4FRm8ha0BPfJUqgO-154" style="shape=tableRow;horizontal=0;startSize=0;swimlaneHead=0;swimlaneBody=0;fillColor=none;collapsible=0;dropTarget=0;points=[[0,0.5],[1,0.5]];portConstraint=eastwest;top=0;left=0;right=0;bottom=0;html=1;" vertex="1" parent="E7xt4FRm8ha0BPfJUqgO-138">
          <mxGeometry y="180" width="280" height="30" as="geometry" />
        </mxCell>
        <mxCell id="E7xt4FRm8ha0BPfJUqgO-155" value="&lt;font color=&quot;#000000&quot;&gt;date&lt;/font&gt;" style="shape=partialRectangle;connectable=0;fillColor=#FFFFFF;top=0;left=0;bottom=0;right=0;fontStyle=1;overflow=hidden;html=1;whiteSpace=wrap;strokeWidth=1;strokeColor=#000000;perimeterSpacing=1;align=left;textShadow=0;" vertex="1" parent="E7xt4FRm8ha0BPfJUqgO-154">
          <mxGeometry width="140" height="30" as="geometry">
            <mxRectangle width="140" height="30" as="alternateBounds" />
          </mxGeometry>
        </mxCell>
        <mxCell id="E7xt4FRm8ha0BPfJUqgO-156" value="date/time" style="shape=partialRectangle;connectable=0;fillColor=#FFFFFF;top=0;left=0;bottom=0;right=0;fontStyle=1;overflow=hidden;html=1;whiteSpace=wrap;strokeColor=#000000;fontColor=#000000;perimeterSpacing=1;align=left;" vertex="1" parent="E7xt4FRm8ha0BPfJUqgO-154">
          <mxGeometry x="140" width="140" height="30" as="geometry">
            <mxRectangle width="140" height="30" as="alternateBounds" />
          </mxGeometry>
        </mxCell>
        <mxCell id="E7xt4FRm8ha0BPfJUqgO-161" value="" style="edgeStyle=elbowEdgeStyle;fontSize=12;html=1;endArrow=ERoneToMany;startArrow=ERmandOne;rounded=1;exitX=0;exitY=0.5;exitDx=0;exitDy=0;jumpStyle=none;entryX=1;entryY=0.5;entryDx=0;entryDy=0;" edge="1" parent="1" source="E7xt4FRm8ha0BPfJUqgO-126" target="E7xt4FRm8ha0BPfJUqgO-151">
          <mxGeometry width="100" height="100" relative="1" as="geometry">
            <mxPoint x="510" y="320" as="sourcePoint" />
            <mxPoint x="50" y="515" as="targetPoint" />
          </mxGeometry>
        </mxCell>
        <mxCell id="E7xt4FRm8ha0BPfJUqgO-164" value="" style="edgeStyle=elbowEdgeStyle;fontSize=12;html=1;endArrow=ERoneToMany;startArrow=ERmandOne;rounded=1;exitX=0;exitY=0.5;exitDx=0;exitDy=0;entryX=0;entryY=0.5;entryDx=0;entryDy=0;curved=0;startFill=0;" edge="1" parent="1" source="E7xt4FRm8ha0BPfJUqgO-100" target="E7xt4FRm8ha0BPfJUqgO-145">
          <mxGeometry width="100" height="100" relative="1" as="geometry">
            <mxPoint x="-80" y="440" as="sourcePoint" />
            <mxPoint x="20" y="340" as="targetPoint" />
            <Array as="points">
              <mxPoint x="30" y="310" />
            </Array>
          </mxGeometry>
        </mxCell>
        <mxCell id="E7xt4FRm8ha0BPfJUqgO-165" value="" style="edgeStyle=elbowEdgeStyle;fontSize=12;html=1;endArrow=ERoneToMany;startArrow=ERmandOne;rounded=1;flowAnimation=0;entryX=1;entryY=0.5;entryDx=0;entryDy=0;strokeColor=default;elbow=vertical;exitX=0;exitY=0.5;exitDx=0;exitDy=0;startFill=0;" edge="1" parent="1" source="E7xt4FRm8ha0BPfJUqgO-68" target="E7xt4FRm8ha0BPfJUqgO-148">
          <mxGeometry width="100" height="100" relative="1" as="geometry">
            <mxPoint x="-70" y="610" as="sourcePoint" />
            <mxPoint x="440" y="485" as="targetPoint" />
            <Array as="points">
              <mxPoint x="390" y="485" />
            </Array>
          </mxGeometry>
        </mxCell>
        <mxCell id="E7xt4FRm8ha0BPfJUqgO-167" value="" style="edgeStyle=elbowEdgeStyle;fontSize=12;html=1;endArrow=ERmandOne;startArrow=ERoneToMany;rounded=1;exitX=0;exitY=0.5;exitDx=0;exitDy=0;entryX=1;entryY=0.5;entryDx=0;entryDy=0;curved=0;startFill=0;endFill=0;" edge="1" parent="1" source="E7xt4FRm8ha0BPfJUqgO-142" target="E7xt4FRm8ha0BPfJUqgO-26">
          <mxGeometry width="100" height="100" relative="1" as="geometry">
            <mxPoint x="-20" y="420" as="sourcePoint" />
            <mxPoint x="-120" y="520" as="targetPoint" />
          </mxGeometry>
        </mxCell>
        <mxCell id="E7xt4FRm8ha0BPfJUqgO-171" value="" style="edgeStyle=elbowEdgeStyle;fontSize=12;html=1;endArrow=ERoneToMany;startArrow=ERoneToMany;rounded=0;entryX=0;entryY=0.5;entryDx=0;entryDy=0;exitX=0;exitY=0.5;exitDx=0;exitDy=0;" edge="1" parent="1" source="E7xt4FRm8ha0BPfJUqgO-26" target="E7xt4FRm8ha0BPfJUqgO-116">
          <mxGeometry width="100" height="100" relative="1" as="geometry">
            <mxPoint x="-140" y="470" as="sourcePoint" />
            <mxPoint x="-40" y="370" as="targetPoint" />
            <Array as="points">
              <mxPoint x="-400" y="290" />
            </Array>
          </mxGeometry>
        </mxCell>
        <mxCell id="E7xt4FRm8ha0BPfJUqgO-172" value="" style="edgeStyle=elbowEdgeStyle;fontSize=12;html=1;endArrow=ERoneToMany;startArrow=ERmandOne;rounded=0;entryX=0;entryY=0.5;entryDx=0;entryDy=0;exitX=0;exitY=0.5;exitDx=0;exitDy=0;" edge="1" parent="1" source="E7xt4FRm8ha0BPfJUqgO-90" target="E7xt4FRm8ha0BPfJUqgO-64">
          <mxGeometry width="100" height="100" relative="1" as="geometry">
            <mxPoint x="-690" y="700" as="sourcePoint" />
            <mxPoint x="-590" y="600" as="targetPoint" />
            <Array as="points">
              <mxPoint x="-400" y="540" />
            </Array>
          </mxGeometry>
        </mxCell>
        <mxCell id="E7xt4FRm8ha0BPfJUqgO-173" value="" style="edgeStyle=elbowEdgeStyle;fontSize=12;html=1;endArrow=ERoneToMany;startArrow=ERoneToMany;rounded=1;exitX=1;exitY=0.5;exitDx=0;exitDy=0;" edge="1" parent="1" source="E7xt4FRm8ha0BPfJUqgO-90">
          <mxGeometry width="100" height="100" relative="1" as="geometry">
            <mxPoint x="-330" y="650" as="sourcePoint" />
            <mxPoint x="-80" y="215" as="targetPoint" />
            <Array as="points">
              <mxPoint x="-40" y="420" />
            </Array>
          </mxGeometry>
        </mxCell>
      </root>
    </mxGraphModel>
  </diagram>
</mxfile>
